<svg xmlns="http://www.w3.org/2000/svg" height="24" width="24"><path d="M12.6 13.375ZM13.1 23h-2.6l.5-.312q.5-.313 1.088-.7.587-.388 1.087-.7l.5-.313q2.025-.15 3.738-1.225 1.712-1.075 2.712-2.875-2.15-.2-4.075-1.087-1.925-.888-3.45-2.413-1.525-1.525-2.425-3.45Q9.275 8 9.1 5.85 7.175 6.925 6.088 8.812 5 10.7 5 12.9v.3l-.3.137q-.3.138-.662.288-.363.15-.663.287l-.3.138q-.05-.275-.062-.575Q3 13.175 3 12.9q0-3.65 2.325-6.438Q7.65 3.675 11.25 3q-.45 2.475.275 4.837.725 2.363 2.5 4.138t4.138 2.5q2.362.725 4.837.275-.65 3.6-3.45 5.925Q16.75 23 13.1 23ZM6 21h4.5q.625 0 1.062-.438Q12 20.125 12 19.5t-.425-1.062Q11.15 18 10.55 18h-1.3l-.5-1.2q-.35-.825-1.1-1.312Q6.9 15 6 15q-1.25 0-2.125.863Q3 16.725 3 18q0 1.25.875 2.125T6 21Zm0 2q-2.075 0-3.537-1.462Q1 20.075 1 18q0-2.075 1.463-3.538Q3.925 13 6 13q1.5 0 2.738.812 1.237.813 1.837 2.188Q12 16.05 13 17.062q1 1.013 1 2.438 0 1.45-1.025 2.475Q11.95 23 10.5 23Z"/></svg>